<?xml version="1.0" encoding="UTF-8"?>
<svg version="1.1" xmlns="http://www.w3.org/2000/svg" width="1024" height="1024">
<path d="M0 0 C1.31610764 -0.00701431 2.63221527 -0.01402863 3.98820496 -0.02125549 C8.21479777 -0.04066816 12.44133585 -0.04568947 16.66796875 -0.046875 C17.74706512 -0.04753778 17.74706512 -0.04753778 18.84796143 -0.04821396 C40.00242807 -0.0550328 60.8709907 0.20027575 81.85546875 3.203125 C83.10779297 3.36941406 84.36011719 3.53570312 85.65039062 3.70703125 C136.89349767 10.56654484 185.63512671 25.1902993 232.85546875 46.203125 C234.1079541 46.75782471 234.1079541 46.75782471 235.38574219 47.32373047 C260.3973935 58.47934073 284.36039014 72.61454103 306.85546875 88.203125 C307.70818359 88.79359619 307.70818359 88.79359619 308.578125 89.39599609 C323.23840926 99.60225891 337.36824284 110.49152827 350.85546875 122.203125 C351.59023438 122.83734375 352.325 123.4715625 353.08203125 124.125 C355.01735676 125.80588032 356.93895744 127.50083452 358.85546875 129.203125 C360.05623047 130.26466797 360.05623047 130.26466797 361.28125 131.34765625 C366.02700734 135.574909 370.60152301 139.90401792 375.0546875 144.4375 C377.00033453 146.39861167 377.00033453 146.39861167 379.91796875 148.703125 C382.94203904 151.27680184 385.37084568 154.01698929 387.9375 157.03125 C389.99014402 159.35562898 392.14611547 161.52753094 394.35546875 163.703125 C398.40388373 167.7106469 402.16603046 171.86615265 405.85546875 176.203125 C406.63148438 177.09 407.4075 177.976875 408.20703125 178.890625 C415.94764443 187.7990535 423.00503753 197.1910866 430.00195312 206.68945312 C431.74190528 209.04911426 433.49328866 211.39988177 435.24609375 213.75 C448.24987114 231.31824937 459.2158398 250.13578996 469.85546875 269.203125 C470.22478516 269.85909668 470.59410156 270.51506836 470.97460938 271.19091797 C508.05209326 337.28171023 529.78551023 418.52449472 530.05859375 494.41015625 C530.0691832 496.37782204 530.0691832 496.37782204 530.07998657 498.38523865 C530.09950609 502.59537315 530.10467857 506.80544948 530.10546875 511.015625 C530.10576332 511.73336594 530.10605789 512.45110687 530.10636139 513.19059753 C530.10778493 534.65779132 529.95465523 555.91163168 526.85546875 577.203125 C526.70274506 578.2613446 526.70274506 578.2613446 526.54693604 579.34094238 C519.0628054 630.85341285 505.1000384 679.65391547 483.85546875 727.203125 C483.48711914 728.03376465 483.11876953 728.8644043 482.73925781 729.72021484 C471.58319691 754.73700118 457.44686769 778.70398425 441.85546875 801.203125 C441.46182129 801.77160156 441.06817383 802.34007812 440.66259766 802.92578125 C430.45633484 817.58606551 419.56706548 831.71589909 407.85546875 845.203125 C407.22125 845.93789063 406.58703125 846.67265625 405.93359375 847.4296875 C404.25271343 849.36501301 402.55775923 851.28661369 400.85546875 853.203125 C400.14777344 854.00363281 399.44007813 854.80414062 398.7109375 855.62890625 C394.48368475 860.37466359 390.15457583 864.94917926 385.62109375 869.40234375 C383.65998208 871.34799078 383.65998208 871.34799078 381.35546875 874.265625 C378.78179191 877.28969529 376.04160446 879.71850193 373.02734375 882.28515625 C370.70296477 884.33780027 368.53106281 886.49377172 366.35546875 888.703125 C362.34794685 892.75153998 358.1924411 896.51368671 353.85546875 900.203125 C352.96859375 900.97914063 352.08171875 901.75515625 351.16796875 902.5546875 C342.26360347 910.29177011 332.87619073 917.34684449 323.38232422 924.34082031 C321.74851294 925.54494712 320.11715113 926.75240772 318.48876953 927.96386719 C308.29130796 935.54933208 297.87359621 942.48995393 286.93701172 948.96386719 C285.02502572 950.10217834 283.12730547 951.26004634 281.234375 952.4296875 C211.46489778 995.37823503 125.35816262 1023.07797408 35.61328125 1024.40625 C34.29858856 1024.41326431 32.98389587 1024.42027863 31.62936401 1024.42750549 C27.4130606 1024.44689192 23.19681224 1024.45193897 18.98046875 1024.453125 C18.26246094 1024.45356686 17.54445313 1024.45400871 16.8046875 1024.45446396 C-4.33035747 1024.461287 -25.17931159 1024.2032184 -46.14453125 1021.203125 C-48.02301758 1020.95369141 -48.02301758 1020.95369141 -49.93945312 1020.69921875 C-101.18256017 1013.83970516 -149.92418921 999.2159507 -197.14453125 978.203125 C-197.97952148 977.8333252 -198.81451172 977.46352539 -199.67480469 977.08251953 C-224.686456 965.92690927 -248.64945264 951.79170897 -271.14453125 936.203125 C-271.71300781 935.80947754 -272.28148437 935.41583008 -272.8671875 935.01025391 C-287.52747176 924.80399109 -301.65730534 913.91472173 -315.14453125 902.203125 C-315.87929688 901.56890625 -316.6140625 900.9346875 -317.37109375 900.28125 C-319.30641926 898.60036968 -321.22801994 896.90541548 -323.14453125 895.203125 C-323.94503906 894.49542969 -324.74554688 893.78773438 -325.5703125 893.05859375 C-330.31606984 888.831341 -334.89058551 884.50223208 -339.34375 879.96875 C-341.28939703 878.00763833 -341.28939703 878.00763833 -344.20703125 875.703125 C-347.23110154 873.12944816 -349.65990818 870.38926071 -352.2265625 867.375 C-354.27920652 865.05062102 -356.43517797 862.87871906 -358.64453125 860.703125 C-362.69294623 856.6956031 -366.45509296 852.54009735 -370.14453125 848.203125 C-370.92054688 847.31625 -371.6965625 846.429375 -372.49609375 845.515625 C-380.23670693 836.6071965 -387.29410003 827.2151634 -394.29101562 817.71679688 C-396.03096778 815.35713574 -397.78235116 813.00636823 -399.53515625 810.65625 C-412.53893364 793.08800063 -423.5049023 774.27046004 -434.14453125 755.203125 C-434.51384766 754.54715332 -434.88316406 753.89118164 -435.26367188 753.21533203 C-472.34115576 687.12453977 -494.07457273 605.88175528 -494.34765625 529.99609375 C-494.3582457 528.02842796 -494.3582457 528.02842796 -494.36904907 526.02101135 C-494.38856859 521.81087685 -494.39374107 517.60080052 -494.39453125 513.390625 C-494.39482582 512.67288406 -494.39512039 511.95514313 -494.39542389 511.21565247 C-494.39684756 489.74652104 -494.23378433 468.49749514 -491.14453125 447.203125 C-491.04507202 446.50707153 -490.94561279 445.81101807 -490.84313965 445.09387207 C-483.45142609 393.61393408 -469.30179957 344.74806071 -448.14453125 297.203125 C-447.77473145 296.36813477 -447.40493164 295.53314453 -447.02392578 294.67285156 C-435.86831552 269.66120025 -421.73311522 245.69820361 -406.14453125 223.203125 C-405.55406006 222.35041016 -405.55406006 222.35041016 -404.95166016 221.48046875 C-395.15490701 207.40840452 -384.75123485 193.78133542 -373.53027344 180.81542969 C-372.07772016 179.12539061 -370.64490685 177.4200373 -369.21484375 175.7109375 C-363.38512869 168.7735576 -357.34572713 162.22795693 -350.8359375 155.921875 C-348.93495256 154.00157671 -347.22936875 152.14671442 -345.53125 150.06640625 C-343.57450235 147.71894958 -341.73420001 145.82535109 -339.39453125 143.890625 C-336.38366617 141.32998274 -333.58712233 138.66207378 -330.83203125 135.828125 C-326.73380073 131.67346446 -322.36182619 128.01493404 -317.80859375 124.37109375 C-315.46688709 122.4654527 -313.23943802 120.49732487 -311.01953125 118.453125 C-304.76382891 112.83416379 -297.99715508 107.8494244 -291.27734375 102.80517578 C-289.35300725 101.35972064 -287.43593713 99.90515489 -285.51953125 98.44921875 C-268.60995799 85.71622027 -250.61067949 74.51938821 -232.14453125 64.203125 C-231.29600586 63.72278809 -230.44748047 63.24245117 -229.57324219 62.74755859 C-161.0701134 24.01142012 -79.03280298 0.28215497 0 0 Z " fill="#FDFDFD" transform="translate(494.14453125,-0.203125)"/>
<path d="M0 0 C4.66172242 0.7047923 9.33508303 1.3016263 14.01269531 1.890625 C50.16641449 6.52080454 81.12528445 24.49723729 112.15185547 42.61962891 C112.9671875 43.09352051 113.78251953 43.56741211 114.62255859 44.05566406 C166.21027553 74.20474066 207.64033288 122.82835869 227.15185547 179.61962891 C227.49095947 180.57844971 227.49095947 180.57844971 227.83691406 181.55664062 C231.46807387 191.91306644 234.14230642 202.39592015 236.46435547 213.11962891 C236.71886475 214.28824463 236.97337402 215.45686035 237.2355957 216.66088867 C239.88185157 229.31011783 240.33837225 241.57789587 240.3371582 254.45288086 C240.33934806 257.04834322 240.35757413 259.64338174 240.37646484 262.23876953 C240.40579246 271.22623507 240.11424599 279.79721033 238.15185547 288.61962891 C237.40556885 288.46059082 236.65928223 288.30155273 235.89038086 288.13769531 C228.44697822 286.72957368 223.72876474 287.72159538 217.21435547 291.24462891 C216.23692383 291.7415625 216.23692383 291.7415625 215.23974609 292.24853516 C209.89265171 295.02965392 205.22685884 298.23629332 200.15185547 301.61962891 C200.15185547 287.75962891 200.15185547 273.89962891 200.15185547 259.61962891 C197.18185547 259.94962891 194.21185547 260.27962891 191.15185547 260.61962891 C148.15723328 262.72039054 100.24128207 256.08991925 66.15185547 227.61962891 C65.059375 226.49814453 65.059375 226.49814453 63.94482422 225.35400391 C62.32802974 223.38787394 62.32802974 223.38787394 60.15185547 223.61962891 C46.28143062 249.81167185 40.28872151 275.25288899 47.63574219 304.44677734 C48.15185547 306.61962891 48.15185547 306.61962891 48.515625 308.86279297 C48.89553984 311.29318767 48.89553984 311.29318767 50.15185547 314.61962891 C52.85206413 316.44882371 52.85206413 316.44882371 56.27685547 317.36962891 C64.9322054 320.43382439 71.58648998 325.79253283 78.67822266 331.49975586 C82.50464873 334.40761146 86.52813081 334.16628997 91.15185547 333.61962891 C93.96281294 332.59974197 96.3786341 331.14850777 98.90185547 329.55712891 C100.29197705 328.73076064 101.68260969 327.90525151 103.07373047 327.08056641 C104.09950195 326.45939941 104.09950195 326.45939941 105.14599609 325.82568359 C108.1126191 324.04195457 111.12001832 322.35316473 114.15185547 320.68212891 C115.60591797 319.86421875 115.60591797 319.86421875 117.08935547 319.02978516 C137.97472344 309.41292567 162.43768369 317.44805316 183.15185547 323.61962891 C183.08474365 324.19028076 183.01763184 324.76093262 182.94848633 325.34887695 C181.54824081 337.54231141 180.39744088 348.23312644 188.15185547 358.61962891 C193.52830063 363.40173914 198.33357191 365.64483566 205.546875 365.70678711 C214.29005781 365.86877532 214.29005781 365.86877532 216.85107422 368.10009766 C217.77685547 369.93212891 217.77685547 369.93212891 219.15185547 373.61962891 C224.76405513 379.08014749 230.05882836 380.80302299 237.71435547 380.99462891 C242.62893589 380.87092093 246.00872925 380.44908096 250.15185547 377.61962891 C250.98523438 377.08015625 250.98523438 377.08015625 251.83544922 376.52978516 C253.29106384 375.58514842 254.72390942 374.60559166 256.15185547 373.61962891 C256.64685547 374.81587891 257.14185547 376.01212891 257.65185547 377.24462891 C260.06342824 382.15515028 263.62478078 384.71878493 268.15185547 387.61962891 C265.80170789 390.26162487 263.44093585 391.57983905 260.27685547 393.11962891 C248.37909582 399.50916649 239.58925341 408.43119548 232.15185547 419.61962891 C231.72388672 420.24353516 231.29591797 420.86744141 230.85498047 421.51025391 C227.55791166 426.73483987 225.98512495 432.77319387 224.15185547 438.61962891 C223.62978516 440.07175781 223.62978516 440.07175781 223.09716797 441.55322266 C220.9583651 448.49107494 220.96918846 455.42813546 220.96435547 462.61962891 C220.95210937 463.57869141 220.93986328 464.53775391 220.92724609 465.52587891 C220.91609058 470.94002111 221.36250879 475.4489901 223.15185547 480.61962891 C223.43544922 481.58384766 223.71904297 482.54806641 224.01123047 483.54150391 C229.64984592 501.44658106 240.22314398 515.13494773 256.87060547 524.08056641 C271.278718 531.08226154 290.64775437 532.74244466 305.90185547 527.49462891 C308.00922844 526.59038353 310.09544447 525.63444631 312.15185547 524.61962891 C313.60591797 523.93320313 313.60591797 523.93320313 315.08935547 523.23291016 C335.98005491 512.64248613 348.64912196 494.74752899 356.39013672 473.09228516 C361.4138454 456.78455388 360.09195992 436.67053801 352.15185547 421.61962891 C351.37455078 420.01667969 351.37455078 420.01667969 350.58154297 418.38134766 C344.3636452 406.56133427 334.77181163 397.97897454 323.15185547 391.61962891 C322.31396484 391.14783203 321.47607422 390.67603516 320.61279297 390.18994141 C312.54405628 386.07025409 304.02208532 384.89868901 295.15185547 383.61962891 C295.15185547 382.95962891 295.15185547 382.29962891 295.15185547 381.61962891 C296.7684249 380.27822023 298.38712901 378.93931965 300.01513672 377.61181641 C303.44241419 374.41636575 306.14097688 370.65764521 308.94091797 366.91259766 C311.15185547 364.61962891 311.15185547 364.61962891 313.51513672 363.64306641 C327.36638804 363.51994417 342.02128182 376.89478293 351.40185547 385.90478516 C370.72024983 404.97621141 379.10090132 426.74212851 379.33935547 453.55712891 C379.27702591 476.83722008 370.68198687 499.21985062 355.15185547 516.61962891 C354.47767578 517.43560547 353.80349609 518.25158203 353.10888672 519.09228516 C339.71836753 534.87309739 318.21133766 548.21101991 297.31201172 550.45629883 C293.34188947 550.75648099 289.38205381 550.81018707 285.40185547 550.80712891 C284.0932959 550.8080957 284.0932959 550.8080957 282.75830078 550.80908203 C276.07828364 550.75467241 269.6785701 550.10538508 263.15185547 548.61962891 C265.83654464 549.6071355 268.52418812 550.58475245 271.21435547 551.55712891 C271.96652344 551.83492187 272.71869141 552.11271484 273.49365234 552.39892578 C291.29291907 558.79433331 309.88478593 556.28341505 326.90185547 548.80712891 C337.27022724 543.7308147 345.82670218 537.59225127 354.15185547 529.61962891 C354.90208984 528.94416016 355.65232422 528.26869141 356.42529297 527.57275391 C373.21354096 511.90372245 385.16017449 486.82090908 386.3425293 463.92773438 C386.40660689 460.54184947 386.43319833 457.16313691 386.41259766 453.77709961 C386.40188817 451.68850567 386.41254734 449.60077486 386.42529297 447.51220703 C386.43915794 436.34851235 385.58421232 425.6702123 381.15185547 415.30712891 C380.69782349 414.23446777 380.69782349 414.23446777 380.23461914 413.14013672 C368.26549741 386.05039331 345.27627163 367.35552975 318.15185547 356.61962891 C317.82185547 352.98962891 317.49185547 349.35962891 317.15185547 345.61962891 C316.84248047 346.52712891 316.53310547 347.43462891 316.21435547 348.36962891 C311.16025918 360.05281893 297.2702721 377.73547785 285.15185547 382.61962891 C279.4767974 383.71881519 274.74590234 383.36875663 269.71435547 380.43212891 C264.95508581 376.97703539 262.02802127 373.20062845 260.15185547 367.61962891 C258.98207433 357.75652686 260.73857712 350.36817311 265.15185547 341.61962891 C265.68294922 340.47365234 266.21404297 339.32767578 266.76123047 338.14697266 C270.48009523 330.30835633 274.80318979 323.43745598 280.15185547 316.61962891 C280.89435547 315.58837891 281.63685547 314.55712891 282.40185547 313.49462891 C292.04996769 303.40796613 302.62506587 297.7323053 316.65185547 297.05712891 C327.91536921 297.46522723 336.88163562 302.28988532 345.15185547 309.61962891 C345.92787109 310.24224609 346.70388672 310.86486328 347.50341797 311.50634766 C364.90329794 326.00624763 376.05491242 347.83986357 384.15185547 368.61962891 C384.64041016 369.84423828 385.12896484 371.06884766 385.63232422 372.33056641 C394.16677239 394.08956491 401.69633625 418.11483714 402.15185547 441.61962891 C402.22726562 443.36373047 402.22726562 443.36373047 402.30419922 445.14306641 C402.94777741 470.52579035 396.56390793 494.30491366 387.51010132 517.77740479 C383.33423305 528.62489477 379.42868535 539.46196444 376.15185547 550.61962891 C354.53447615 622.69981724 319.81013468 687.67573507 266.15185547 740.61962891 C266.81185547 741.27962891 267.47185547 741.93962891 268.15185547 742.61962891 C252.29229965 754.19832775 235.28510046 764.07279904 218.15185547 773.61962891 C217.4929834 773.99039551 216.83411133 774.36116211 216.15527344 774.74316406 C150.05580452 811.82767962 68.80429486 833.55066201 -7.09033203 833.82275391 C-8.40502472 833.82976822 -9.71971741 833.83678253 -11.07424927 833.8440094 C-15.29055268 833.86339582 -19.50680104 833.86844288 -23.72314453 833.86962891 C-24.44115234 833.87007076 -25.15916016 833.87051262 -25.89892578 833.87096786 C-47.03397075 833.8777909 -67.88292488 833.61972231 -88.84814453 830.61962891 C-90.72663086 830.37019531 -90.72663086 830.37019531 -92.64306641 830.11572266 C-153.31490721 821.9940583 -214.50356135 804.03641068 -267.84814453 773.61962891 C-266.85814453 773.28962891 -265.86814453 772.95962891 -264.84814453 772.61962891 C-264.744375 771.59474365 -264.64060547 770.5698584 -264.53369141 769.51391602 C-263.40556537 758.91440262 -261.58748445 748.59774489 -259.34814453 738.18212891 C-259.03624227 736.70636613 -258.72504305 735.2304546 -258.41455078 733.75439453 C-257.82293756 730.94404476 -257.22728325 728.13460013 -256.62890625 725.32568359 C-255.98242177 722.25700491 -255.36211739 719.18591633 -254.76220703 716.10791016 C-253.90301432 711.775163 -252.86385539 707.51123376 -251.72314453 703.24462891 C-251.51141602 702.44992187 -251.2996875 701.65521484 -251.08154297 700.83642578 C-250.34497685 698.095281 -249.59839017 695.35706128 -248.84814453 692.61962891 C-248.41840332 691.05100098 -248.41840332 691.05100098 -247.97998047 689.45068359 C-244.32432793 676.19652025 -240.44095231 663.04110216 -236.09814453 649.99462891 C-235.73366211 648.89957031 -235.36917969 647.80451172 -234.99365234 646.67626953 C-226.84814551 622.5751084 -216.69156009 598.39489269 -201.84814453 577.61962891 C-201.13400391 576.61802734 -200.41986328 575.61642578 -199.68408203 574.58447266 C-182.71984209 551.69125922 -182.71984209 551.69125922 -171.84814453 544.61962891 C-166.98327749 544.81666961 -162.93824591 546.76942821 -158.59814453 548.80712891 C-144.53327437 555.15757618 -129.96127155 559.55200593 -114.84814453 562.61962891 C-113.69515869 562.85738037 -112.54217285 563.09513184 -111.35424805 563.34008789 C-101.61755633 565.29300556 -91.93181612 566.52543909 -82.03564453 567.30712891 C-80.87251236 567.40093842 -80.87251236 567.40093842 -79.68588257 567.49664307 C-32.73633959 571.18191003 19.61112703 571.38648581 61.80419922 547.58837891 C64.15185547 546.61962891 64.15185547 546.61962891 66.15966797 546.76025391 C68.70045538 547.85627985 70.81323035 549.29516642 73.08935547 550.86962891 C80.2220226 555.47712458 87.75303386 559.06471552 96.22998047 560.25244141 C108.74288489 562.13310115 114.60179269 567.86868738 122.4597168 577.54077148 C135.40125801 593.43995247 158.51406217 616.66842341 179.89013672 620.05322266 C190.5439658 620.06938932 197.9755237 616.79743625 205.65185547 609.39697266 C220.36370562 593.05302663 229.60949702 570.60430531 235.33935547 549.61962891 C235.85198772 547.7649941 236.36622931 545.91080313 236.88232422 544.05712891 C237.2133313 542.84863281 237.2133313 542.84863281 237.55102539 541.61572266 C238.15185547 539.61962891 238.15185547 539.61962891 239.15185547 537.61962891 C238.36875 537.29478516 238.36875 537.29478516 237.56982422 536.96337891 C234.19459069 535.08764331 231.37652973 532.62904316 228.46435547 530.11962891 C227.84294678 529.59006592 227.22153809 529.06050293 226.58129883 528.51489258 C221.97177115 524.5151066 218.06088119 520.30948338 214.31201172 515.48291016 C211.22303322 512.81845673 209.20695937 512.50613838 205.15185547 512.61962891 C202.7279667 514.33732108 201.02778013 515.81203778 199.02685547 517.93212891 C197.88886867 519.05332979 196.74684223 520.17044344 195.60107422 521.28369141 C195.02663574 521.84733398 194.45219727 522.41097656 193.86035156 522.99169922 C184.78641868 531.63773873 174.19716826 537.84939035 163.15185547 543.61962891 C162.10642578 544.18681641 161.06099609 544.75400391 159.98388672 545.33837891 C139.94140255 555.50222599 116.69829786 557.91480096 95.21923828 551.30859375 C70.71255989 543.14163031 52.4387535 526.85589836 38.60888672 505.33056641 C37.79317799 504.0914075 36.97381717 502.85464894 36.15185547 501.61962891 C35.79281631 501.07562439 35.43377716 500.53161987 35.06385803 499.97113037 C30.40462535 493.36218396 24.60024482 487.90062083 18.83543777 482.27514267 C16.90248238 480.38676726 14.97801404 478.49011097 13.05575562 476.59085083 C7.59404054 471.19579655 2.12430068 465.80910565 -3.36669922 460.44384766 C-6.73905401 457.14753565 -10.09597692 453.83613543 -13.44401932 450.51514053 C-14.7100901 449.26499026 -15.98165156 448.02037158 -17.2591362 446.78188705 C-30.90567397 433.5447276 -42.61083246 416.73632728 -43.14038086 396.99926758 C-43.27684106 382.65779413 -40.09635521 369.55452118 -33.84814453 356.61962891 C-33.18685547 355.21970703 -33.18685547 355.21970703 -32.51220703 353.79150391 C-22.25448495 333.50274973 -4.32161166 323.24835067 16.15185547 315.61962891 C17.26302734 315.31927734 18.37419922 315.01892578 19.51904297 314.70947266 C22.2665864 313.90425338 22.2665864 313.90425338 23.14013672 311.70166016 C23.300625 310.57824219 23.300625 310.57824219 23.46435547 309.43212891 C23.58423828 308.69607422 23.70412109 307.96001953 23.82763672 307.20166016 C23.93462891 306.34958984 24.04162109 305.49751953 24.15185547 304.61962891 C24.32330078 303.54970703 24.49474609 302.47978516 24.67138672 301.37744141 C27.41245224 279.93918909 22.47357682 262.36282005 9.40185547 245.05712891 C1.63697023 234.50084104 1.63697023 234.50084104 -8.84814453 227.61962891 C-8.99509766 228.17650391 -9.14205078 228.73337891 -9.29345703 229.30712891 C-11.09365184 235.43192964 -13.76842167 239.75968255 -17.84814453 244.61962891 C-18.59966797 245.58771484 -19.35119141 246.55580078 -20.12548828 247.55322266 C-22.87572742 250.83594835 -25.96632849 253.15947344 -29.53564453 255.49462891 C-30.18863525 255.92243652 -30.84162598 256.35024414 -31.5144043 256.79101562 C-57.88412684 273.5324119 -91.27652852 281.16940528 -121.84814453 285.61962891 C-123.03496826 285.80203125 -124.22179199 285.98443359 -125.44458008 286.17236328 C-138.40796253 288.0217645 -151.34231148 287.84573418 -164.41064453 287.74462891 C-166.6938437 287.73457147 -168.97704719 287.72545055 -171.26025391 287.71728516 C-176.78964702 287.69550813 -182.31887481 287.66225283 -187.84814453 287.61962891 C-188.21017036 300.755315 -188.21017036 300.755315 -186.22314453 313.68212891 C-186.04638184 314.41834473 -185.86961914 315.15456055 -185.6875 315.91308594 C-181.549681 332.36223703 -174.94340429 347.69399025 -163.84814453 360.61962891 C-163.39052734 361.23322266 -162.93291016 361.84681641 -162.46142578 362.47900391 C-149.78856728 379.07169552 -124.52570799 387.72985387 -104.72021484 390.59790039 C-85.22584573 393.09413058 -67.64070274 391.13807854 -48.84814453 385.61962891 C-48.86385498 386.28905518 -48.87956543 386.95848145 -48.89575195 387.64819336 C-48.95891703 390.7427492 -48.99739017 393.83716871 -49.03564453 396.93212891 C-49.06078125 397.98464844 -49.08591797 399.03716797 -49.11181641 400.12158203 C-49.17936213 407.43903513 -48.16794228 413.68586091 -45.84814453 420.61962891 C-45.48333984 421.71275391 -45.11853516 422.80587891 -44.74267578 423.93212891 C-38.88277461 438.48668489 -28.53168889 448.85418735 -16.77783203 458.90869141 C-14.71505932 460.73762754 -12.78223734 462.65543349 -10.84814453 464.61962891 C-8.36889126 467.13724586 -5.8537427 469.52053612 -3.16064453 471.80712891 C1.24956732 475.59103848 5.28508301 479.71975001 9.36230469 483.85400391 C12.29654907 486.81474453 15.25413365 489.64144176 18.46435547 492.30712891 C24.98337787 497.89681478 29.70132523 504.73215962 34.08935547 512.05712891 C40.1417905 522.10134501 47.63300704 530.34577794 56.06201172 538.40478516 C58.15185547 540.61962891 58.15185547 540.61962891 58.15185547 542.61962891 C39.61317527 551.0728773 20.9816343 556.85212795 0.90185547 560.30712891 C0.21824951 560.42652832 -0.46535645 560.54592773 -1.16967773 560.66894531 C-13.07866679 562.61091851 -25.11899862 562.85979082 -37.16064453 562.86962891 C-37.91393036 562.87030365 -38.66721619 562.87097839 -39.44332886 562.87167358 C-73.35644931 562.82411334 -108.0314393 558.87651393 -139.84814453 546.61962891 C-140.55229492 546.35730469 -141.25644531 546.09498047 -141.98193359 545.82470703 C-162.53083942 538.15625783 -181.84371134 528.15515398 -199.84814453 515.61962891 C-200.51313965 515.15669434 -201.17813477 514.69375977 -201.86328125 514.21679688 C-210.00973508 508.493918 -217.56711127 502.42261452 -224.84814453 495.61962891 C-226.4936646 494.18177032 -228.13950378 492.74427686 -229.78564453 491.30712891 C-237.81878687 484.05341509 -244.90217717 476.02949963 -251.53564453 467.49462891 C-251.97005859 466.93807617 -252.40447266 466.38152344 -252.85205078 465.80810547 C-255.84814453 461.86961295 -255.84814453 461.86961295 -255.84814453 459.61962891 C-256.46818359 459.77689453 -257.08822266 459.93416016 -257.72705078 460.09619141 C-274.80258519 462.95992308 -289.94750438 460.28788813 -304.32080078 450.49462891 C-318.21038012 440.19014964 -327.82246416 426.04487969 -331.40283203 408.97509766 C-333.8385588 390.62168276 -331.16558373 374.29325066 -320.84814453 358.61962891 C-319.52596422 357.08908945 -318.1928358 355.56792909 -316.84814453 354.05712891 C-314.37184064 351.00074209 -314.37184064 351.00074209 -313.78173828 347.22509766 C-314.24342894 344.73550135 -314.24342894 344.73550135 -315.0378418 342.33837891 C-317.65077562 333.57139156 -318.56985231 324.21080963 -319.91064453 315.18212891 C-320.08402344 314.04453125 -320.25740234 312.90693359 -320.43603516 311.73486328 C-322.51531228 297.76945029 -323.03457641 284.09447156 -323.03344727 269.99487305 C-323.03562724 266.95623621 -323.05381969 263.91796717 -323.07275391 260.87939453 C-323.18059195 223.28452375 -323.18059195 223.28452375 -317.84814453 212.61962891 C-318.50814453 212.61962891 -319.16814453 212.61962891 -319.84814453 212.61962891 C-321.2247448 219.46948133 -322.58503346 226.32221764 -323.91064453 233.18212891 C-324.08402344 234.06320312 -324.25740234 234.94427734 -324.43603516 235.85205078 C-324.60425781 236.72539062 -324.77248047 237.59873047 -324.94580078 238.49853516 C-325.17021851 239.65204468 -325.17021851 239.65204468 -325.39916992 240.82885742 C-326.502803 247.68890622 -327.00581168 254.45261824 -327.01611328 261.39697266 C-327.01944168 262.20719376 -327.02277008 263.01741486 -327.02619934 263.85218811 C-327.03122798 265.55892375 -327.03360893 267.26566907 -327.03344727 268.97241211 C-327.03561272 271.51970681 -327.05375403 274.06655233 -327.07275391 276.61376953 C-327.1106565 287.75052136 -326.30362842 298.58413643 -324.84814453 309.61962891 C-324.65845506 311.12461367 -324.46986316 312.62973726 -324.2824707 314.13500977 C-324.13914307 315.28493408 -323.99581543 316.4348584 -323.84814453 317.61962891 C-338.31820282 320.93474546 -357.15613049 320.61210778 -370.84814453 314.61962891 C-371.98509766 314.13365234 -373.12205078 313.64767578 -374.29345703 313.14697266 C-386.97793771 307.25077999 -398.60175731 299.16523478 -407.84814453 288.61962891 C-408.65767578 287.70052734 -409.46720703 286.78142578 -410.30126953 285.83447266 C-430.08436191 262.30544679 -434.65252382 232.4357276 -432.84814453 202.61962891 C-432.19805329 196.73580814 -430.78172866 191.20385298 -428.84814453 185.61962891 C-428.60676758 184.91692871 -428.36539063 184.21422852 -428.11669922 183.49023438 C-422.79299649 168.49346423 -414.95573597 156.05791921 -403.84814453 144.61962891 C-403.16365234 143.86166016 -402.47916016 143.10369141 -401.77392578 142.32275391 C-388.60893987 128.20872095 -368.77500541 118.21057334 -349.45361328 117.26806641 C-328.61406299 116.73532333 -311.02946278 121.96492221 -294.10595703 134.11572266 C-292.02285909 135.80441819 -292.02285909 135.80441819 -289.84814453 135.61962891 C-289.42146484 134.81783203 -288.99478516 134.01603516 -288.55517578 133.18994141 C-282.79452942 122.71387936 -276.0043457 113.18259445 -268.84814453 103.61962891 C-268.38053711 102.99072754 -267.91292969 102.36182617 -267.43115234 101.71386719 C-261.93019192 94.33398624 -256.09513222 87.37918994 -249.84814453 80.61962891 C-249.02185547 79.69021484 -248.19556641 78.76080078 -247.34423828 77.80322266 C-242.4612982 72.32389294 -237.54915704 67.24024649 -231.84814453 62.61962891 C-231.35330566 62.21244629 -230.8584668 61.80526367 -230.34863281 61.38574219 C-215.38695028 49.11141652 -199.03608181 40.37620811 -181.84814453 31.61962891 C-180.83655273 31.10287598 -179.82496094 30.58612305 -178.78271484 30.05371094 C-160.99336332 20.9882574 -143.27841214 12.3441715 -124.41064453 5.74462891 C-123.35699707 5.3750708 -122.30334961 5.0055127 -121.21777344 4.62475586 C-82.09547498 -8.68271143 -40.21530863 -6.10287184 0 0 Z " fill="#000000" transform="translate(536.84814453125,190.38037109375)"/>
<path d="M0 0 C2.24323856 1.67352718 4.2891152 3.43587167 6.33984375 5.33984375 C7.15839844 6.06816406 7.97695313 6.79648437 8.8203125 7.546875 C21.96952054 19.86058117 29.9705068 36.00266074 30.67578125 54.0390625 C30.99883921 75.26256587 26.58317943 94.90789795 12.33984375 111.33984375 C11.70820312 112.12488281 11.0765625 112.90992188 10.42578125 113.71875 C-2.17094832 128.72030976 -22.14530594 139.23570556 -41.66015625 141.33984375 C-62.47382018 142.78309389 -81.439179 138.26479398 -97.49609375 124.3828125 C-111.18567499 111.45925476 -121.12503785 93.55709465 -121.99609375 74.4296875 C-122.1932266 63.1190541 -121.23309385 53.08216271 -117.66015625 42.33984375 C-117.30953125 41.28539062 -116.95890625 40.2309375 -116.59765625 39.14453125 C-108.87768544 18.61155332 -92.56917209 4.05353175 -73.28515625 -5.47265625 C-49.17279178 -15.59563142 -22.34068551 -13.94242488 0 0 Z " fill="#FDFCFC" transform="translate(711.66015625,585.66015625)"/>
<path d="M0 0 C0.62003906 0.35191406 1.24007812 0.70382812 1.87890625 1.06640625 C20.67520511 11.54527446 40.02879501 19.18193202 61 24 C62.0219043 24.24194092 62.0219043 24.24194092 63.06445312 24.48876953 C79.0495788 28.13857532 95.68771049 27.73727314 112 28 C112 28.66 112 29.32 112 30 C109.54429825 31.33838733 107.08570084 32.67086232 104.625 34 C103.57699219 34.57234375 103.57699219 34.57234375 102.5078125 35.15625 C97.2265625 38 97.2265625 38 95 38 C95 38.66 95 39.32 95 40 C74.12237438 50.46286537 52.5341045 58.92905434 30.44152832 66.44192505 C28.99527262 66.93395247 27.55017116 67.42938748 26.10632324 67.92843628 C12.20657416 72.71141822 12.20657416 72.71141822 5 72 C4.98018066 71.37883301 4.96036133 70.75766602 4.93994141 70.11767578 C4.01254242 39.85611385 4.01254242 39.85611385 0.3671875 9.83203125 C-0.06056217 6.53289819 -0.05793526 3.32300071 0 0 Z " fill="#F8F8F8" transform="translate(642,933)"/>
<path d="M0 0 C0.65613281 0.40992188 1.31226563 0.81984375 1.98828125 1.2421875 C2.61347656 1.63148438 3.23867188 2.02078125 3.8828125 2.421875 C9.59723029 6.62987764 12.84149378 12.57344346 14.98828125 19.2421875 C16.29054685 29.61761504 15.28887092 38.82296636 9.23828125 47.4296875 C3.46120711 54.62594362 -3.43050155 60.52008172 -12.82421875 61.55078125 C-21.51779685 61.90235978 -27.87153577 60.31988361 -35.01171875 55.2421875 C-41.86142157 48.75104313 -46.12940583 40.20331984 -46.44921875 30.7421875 C-46.00420878 20.86852875 -43.01780608 13.30055907 -36.01171875 6.2421875 C-25.63012292 -2.36533816 -12.72005271 -6.74372081 0 0 Z " fill="#030303" transform="translate(705.01171875,637.7578125)"/>
<path d="M0 0 C6.22075774 4.83836713 9.55662866 11.11659952 11.25 18.75 C12.51673404 29.06200678 8.94034839 39.58793514 2.71875 47.76171875 C-2.53121373 53.46981611 -10.32863549 58.1278762 -18.1328125 59.0234375 C-26.35942765 59.32812695 -31.6251521 57.5072872 -37.72265625 51.953125 C-45.35250349 43.85349948 -47.38123888 36.33525058 -47.29321289 25.42114258 C-47.03265061 18.92603546 -45.60064422 14.07144732 -41.75 8.75 C-41.31558594 8.10933594 -40.88117187 7.46867188 -40.43359375 6.80859375 C-30.48223521 -6.31812706 -13.59101145 -8.93292076 0 0 Z " fill="#030303" transform="translate(864.75,637.25)"/>
<path d="M0 0 C2.06822899 1.35191553 2.67947013 2.79287143 3.6015625 5.046875 C2.96089844 5.48257812 2.32023438 5.91828125 1.66015625 6.3671875 C-1.04753026 8.23149624 -3.72523743 10.13350941 -6.3984375 12.046875 C-7.01589844 12.46710938 -7.63335938 12.88734375 -8.26953125 13.3203125 C-23.0662852 24.46223274 -29.24805836 44.90715971 -33.21972656 62.05273438 C-35.0243477 69.59466452 -37.42033719 74.84014248 -43.3984375 80.046875 C-48.02644798 81.58954516 -52.56521476 81.55235531 -57.3984375 81.046875 C-60.8359375 79.296875 -60.8359375 79.296875 -63.3984375 77.046875 C-64.1409375 76.428125 -64.8834375 75.809375 -65.6484375 75.171875 C-69.14571317 70.92518311 -69.8669247 66.27253387 -69.703125 60.83984375 C-67.38081525 39.55200433 -56.82164739 21.39955538 -40.40087891 7.84326172 C-27.99918662 -1.95697764 -15.29798317 -5.31590149 0 0 Z " fill="#030303" transform="translate(824.3984375,482.953125)"/>
<path d="M0 0 C0.85464844 -0.02578125 1.70929687 -0.0515625 2.58984375 -0.078125 C5.52394478 0.31123438 6.86950201 1.31649829 9.0625 3.25 C8.38445313 3.77464844 7.70640625 4.29929687 7.0078125 4.83984375 C-1.65759992 12.05301946 -6.84102329 20.26501725 -11.9375 30.25 C-12.50984375 31.34441406 -13.0821875 32.43882812 -13.671875 33.56640625 C-17.92228855 42.91492818 -17.41473386 52.20687858 -16.9375 62.25 C-20.52970306 64.04610153 -24.2196031 63.81937871 -28 62.56640625 C-32.93845643 60.31230019 -35.82646059 57.68087431 -38.9375 53.25 C-41.44303963 45.73338111 -41.04800132 34.6142208 -38.03125 27.25390625 C-30.78544469 13.9785558 -15.81112079 0.28531346 0 0 Z " fill="#060606" transform="translate(765.9375,486.75)"/>
<path d="M0 0 C0.99 0.2165625 0.99 0.2165625 2 0.4375 C13.6000954 2.61251789 25.24394055 2.18685508 37 2 C33.84685215 4.10209857 33.13896919 4.2434761 29.55078125 4.1953125 C28.27944336 4.18564453 28.27944336 4.18564453 26.98242188 4.17578125 C26.10134766 4.15902344 25.22027344 4.14226563 24.3125 4.125 C23.41982422 4.11597656 22.52714844 4.10695313 21.60742188 4.09765625 C19.40467686 4.07409748 17.20247412 4.04120329 15 4 C15 4.66 15 5.32 15 6 C9.45949887 5.43174347 4.96284034 3.37113483 0 1 C0 0.67 0 0.34 0 0 Z " fill="#C8C8C7" transform="translate(799,738)"/>
<path d="M0 0 C1.32 0.66 2.64 1.32 4 2 C2.40207898 3.17520646 0.79643092 4.33991247 -0.8125 5.5 C-2.15248047 6.47453125 -2.15248047 6.47453125 -3.51953125 7.46875 C-6 9 -6 9 -9 9 C-9 8.34 -9 7.68 -9 7 C-7.03125 5.2734375 -7.03125 5.2734375 -4.5 3.375 C-3.6646875 2.74335937 -2.829375 2.11171875 -1.96875 1.4609375 C-1.3190625 0.97882812 -0.669375 0.49671875 0 0 Z " fill="#616161" transform="translate(801,931)"/>
</svg>
